<?xml version="1.0" encoding="utf-8"?>
<!-- Generator: Adobe Illustrator 16.0.0, SVG Export Plug-In . SVG Version: 6.00 Build 0)  -->
<!DOCTYPE svg PUBLIC "-//W3C//DTD SVG 1.1//EN" "http://www.w3.org/Graphics/SVG/1.1/DTD/svg11.dtd">
<svg version="1.1" id="Capa_1" xmlns="http://www.w3.org/2000/svg" xmlns:xlink="http://www.w3.org/1999/xlink" x="0px" y="0px"
	 width="300px" height="300px" viewBox="0 0 300 300" enable-background="new 0 0 300 300" xml:space="preserve">
<path fill-rule="evenodd" clip-rule="evenodd" fill="#23524E" d="M142.283,240.584c-5.63,0-11.149,0-16.806,0
	c0,4.01,0,7.81,0,11.903c5.504,0,11.072,0,16.782,0c0,10.978,0,21.665,0,33.03c-3.707-9.554-10.631-14.344-19.772-16.201
	c-7.012-1.426-14.132-1.336-21.165-0.409c-23.421,3.084-46.556,7.879-69.815,11.934c-9.271,1.617-18.532,3.289-27.803,4.904
	c-0.677,0.117-1.416,0.328-2.329-0.183c3.486-4.84,6.941-9.639,10.399-14.436c7.853-10.896,15.718-21.783,23.543-32.698
	c0.896-1.25,1.844-1.907,3.486-2.194c20.61-3.6,41.177-7.453,61.8-10.976c8.648-1.477,17.376-2.703,26.223-1.661
	c2.026,0.239,4.021,0.581,5.945,1.209C139.638,227.047,142.655,231.961,142.283,240.584z"/>
<path fill-rule="evenodd" clip-rule="evenodd" fill="#23524E" d="M154.201,283.926c0.561-5.503,1.966-10.562,4.513-15.29
	c3.426-6.36,8.016-11.854,12.877-17.13c7.849-8.517,16.198-16.543,24.317-24.795c0.982-0.998,1.881-1.129,3.236-0.884
	c14.369,2.59,28.756,5.084,43.138,7.606c5.594,0.981,11.184,1.989,16.786,2.925c0.932,0.155,1.428,0.706,1.905,1.366
	c11.438,15.829,22.873,31.662,34.303,47.498c0.084,0.116,0.095,0.285,0.24,0.757c-3.769-0.615-7.397-1.184-11.018-1.804
	c-14.863-2.55-29.726-5.104-44.584-7.681c-11.587-2.009-23.151-4.151-34.756-6.056c-10.605-1.74-21.247-3.228-31.989-0.919
	c-8.122,1.745-14.253,6.063-17.885,13.671c-0.1,0.207-0.261,0.388-0.411,0.566C154.834,283.806,154.729,283.798,154.201,283.926z"/>
<path fill-rule="evenodd" clip-rule="evenodd" fill="#D0A01F" d="M77.223,160.645c-3.896-14.55-1.188-28.138,6.392-40.871
	c5.724-9.616,13.733-17.348,21.52-25.228c14.844-15.019,29.785-29.942,44.629-44.961c4.296-4.346,8.394-8.889,12.217-13.666
	c4.567-5.706,8.269-11.829,8.929-19.099c2.301,15.632-0.351,29.988-11.432,42.392c-9.034,10.111-18.875,19.387-28.31,29.08
	c-11.657,11.976-23.901,23.377-35.159,35.741c-6.981,7.667-13.42,15.727-16.498,25.909C78.458,153.43,77.969,157.028,77.223,160.645
	z"/>
<path fill-rule="evenodd" clip-rule="evenodd" fill="#D0A01F" d="M171.173,47.991c-0.282,7.692,1.309,15.5-0.687,23.092
	c-2.29,8.716-7.596,15.815-13.569,22.292c-15.763,17.088-32.73,32.998-49.007,49.585c-4.915,5.008-9.722,10.108-13.829,15.811
	c-4.792,6.655-8.675,13.715-9.669,22.066c-0.426,3.579-0.065,6.824,2.086,13.554c-1.86-1.023-2.623-1.741-3.84-4.521
	c-5.175-11.813-4.605-23.546,0.765-35.13c4.299-9.274,10.519-17.234,17.602-24.474c16.424-16.788,33.038-33.391,49.525-50.118
	c4.634-4.702,9.022-9.636,13.013-14.912C167.442,60.105,170.317,54.549,171.173,47.991z"/>
<path fill-rule="evenodd" clip-rule="evenodd" fill="#D0A01F" d="M104.955,213.578c-4.708-0.63-7.895-2.708-10.365-5.917
	c-5.065-6.579-5.723-14.188-4.802-22.052c1.351-11.522,7.789-20.344,15.619-28.286c13.513-13.708,27.176-27.267,40.71-40.953
	c5.791-5.854,11.439-11.847,16.537-18.335c4.332-5.514,7.652-11.466,8.505-18.613c-0.064,7.271,0.957,14.556-0.336,21.749
	c-1.318,7.325-5.52,13.295-9.934,19.064c-4.466,5.84-9.6,11.086-14.809,16.261c-10.993,10.922-21.96,21.871-32.929,32.817
	c-6.657,6.644-11.966,14.114-14.475,23.35c-0.914,3.366-1.042,6.768-0.718,10.172C98.353,206.985,100.307,209.884,104.955,213.578z"
	/>
<path fill-rule="evenodd" clip-rule="evenodd" fill="#D0A01F" d="M154.329,240.362c0.261-7.912-1.057-15.853,0.634-23.641
	c1.902-8.762,7.144-15.765,12.729-22.488c7.728-9.301,16.641-17.472,25.075-26.099c6.984-7.144,13.301-14.787,17.124-24.151
	c3.019-7.397,3.743-14.925,0.598-22.524c-0.085-0.206-0.031-0.469-0.058-1.014c1.87,1.175,2.852,2.787,3.623,4.507
	c4.649,10.368,4.895,20.865,0.896,31.498c-4.007,10.653-10.813,19.447-18.506,27.589c-7.447,7.882-15.167,15.506-22.723,23.287
	c-3.635,3.744-7.06,7.682-10.209,11.846C158.744,225.477,155.464,232.436,154.329,240.362z"/>
<path fill-rule="evenodd" clip-rule="evenodd" fill="#D0A01F" d="M192.525,101.419c4.615,0.31,7.916,2.949,10.421,6.6
	c3.796,5.531,4.738,11.797,4.342,18.381c-0.693,11.508-6.149,20.733-13.843,28.823c-6.966,7.323-14.217,14.377-21.159,21.722
	c-6.494,6.873-12.569,14.088-15.845,23.198c-0.876,2.438-1.316,4.978-1.976,7.612c-1.962-12.261-0.396-24.956,4.169-33.203
	c3.654-6.602,8.447-12.345,13.65-17.771c5.918-6.172,12.501-11.72,17.665-18.601c4.543-6.053,7.97-12.612,8.898-20.271
	C199.646,111.333,198.248,105.639,192.525,101.419z"/>
<path fill-rule="evenodd" clip-rule="evenodd" fill="#D0A01F" d="M157.767,240.599c3.606-7.495,8.344-13.471,13.486-19.156
	c7.391-8.169,15.487-15.647,23.128-23.571c5.208-5.402,10.24-10.947,14.728-16.978c5.971-8.021,9.509-16.944,10.211-27.388
	c1.355,2.741,1.614,5.335,1.828,7.86c1.128,13.283-2.109,25.461-9.61,36.483c-6.603,9.701-15.061,17.758-23.236,26.058
	c-5.036,5.112-10.192,10.105-15.232,15.215c-1.063,1.077-2.154,1.539-3.66,1.505C165.688,240.542,161.965,240.599,157.767,240.599z"
	/>
<path fill-rule="evenodd" clip-rule="evenodd" fill="#D0A01F" d="M154.236,270.601c0-5.897,0-11.795,0-17.866
	c2.36,0,4.674,0,7.369,0C158.013,258.275,155.361,264.129,154.236,270.601z"/>
<path fill-rule="evenodd" clip-rule="evenodd" fill="#C6C0B7" d="M297.137,261.414c-2.535,2.005-5.849,2.049-8.047,0.106
	c0.063-0.085,0.128-0.167,0.194-0.246c2.562,1.377,5.108,1.204,7.644-0.079C296.997,261.269,297.067,261.341,297.137,261.414z"/>
<path fill-rule="evenodd" clip-rule="evenodd" fill="#C6C0B7" d="M298.604,259.938c-0.189,0.789-0.681,1.279-1.467,1.476
	c-0.069-0.073-0.14-0.146-0.207-0.217c0.244-0.725,0.742-1.201,1.446-1.476C298.452,259.794,298.528,259.866,298.604,259.938z"/>
<path fill-rule="evenodd" clip-rule="evenodd" fill="#C6C0B7" d="M288.205,260.904c-0.194-0.307-0.39-0.614-0.586-0.919
	c-0.002,0.002,0.186-0.146,0.186-0.146c0.196,0.289,0.395,0.578,0.592,0.866C288.332,260.771,288.268,260.837,288.205,260.904z"/>
<path fill-rule="evenodd" clip-rule="evenodd" fill="#C6C0B7" d="M289.09,261.521c-0.295-0.206-0.59-0.412-0.885-0.617
	c0.063-0.066,0.127-0.133,0.189-0.195c0.295,0.189,0.592,0.378,0.89,0.565C289.218,261.354,289.153,261.436,289.09,261.521z"/>
</svg>
